<?xml version="1.0" encoding="utf-8"?>
<!-- Generator: Adobe Illustrator 25.0.0, SVG Export Plug-In . SVG Version: 6.00 Build 0)  -->
<svg version="1.1" id="Layer_1" xmlns="http://www.w3.org/2000/svg" xmlns:xlink="http://www.w3.org/1999/xlink" x="0px" y="0px"
	 viewBox="0 0 350 44" style="enable-background:new 0 0 350 44;" xml:space="preserve">
<style type="text/css">
	.st0{fill:#F65237;}
	.st1{enable-background:new    ;}
</style>
<g>
	<path d="M12.8,29.9c4.6-0.3,8.7-0.9,12.4-1.8l0.6,5.1c-3.5,0.8-7.3,1.4-11.4,1.8c-4.1,0.4-8.7,0.6-13.8,0.6L0,30.3
		c2.6,0,5.1,0,7.5-0.1V18.4h5.3V29.9z M15.9,25.3c0.4-1.9,0.7-4,1-6.3c0.2-2.3,0.3-4.5,0.3-6.5H2.1V7.3h20.4
		c0,7.3-0.4,13.4-1.3,18.4L15.9,25.3z M32.8,18.4h5.7v5.8h-5.7V41h-5.7V2.6h5.7V18.4z"/>
	<path d="M51.4,23.5C48.5,25.9,45,27.7,41,29l-2.6-4.4c3.4-1,6.2-2.3,8.6-3.9c2.4-1.5,4.2-3.2,5.4-5.1v-0.2H40.2v-4.5h19
		c-0.6,3.3-2,6.4-4.3,9.1l7,4.1l-2.7,4L51.4,23.5z M42.8,3.9h14.4v4.3H42.8V3.9z M52.5,28.9v6.7H74v5.1H46.6V28.9H52.5z M72.7,31.3
		h-5.9V20.1h-7.2V15h7.2V2.6h5.9V31.3z"/>
	<path class="st0" d="M76.3,9.8h18.6v4.3H76.3V9.8z M91.6,25.6c-1.4,1-3.4,1.5-5.8,1.5s-4.3-0.5-5.7-1.5c-1.4-1-2.1-2.4-2.1-4.2
		c0-1.7,0.7-3.1,2.1-4.1s3.3-1.5,5.7-1.5c2.4,0,4.3,0.5,5.7,1.5c1.5,1,2.2,2.4,2.2,4.1C93.8,23.2,93,24.6,91.6,25.6z M79.4,3.7h12.8
		v3.9H79.4V3.7z M83.5,22.9c0.6,0.3,1.4,0.5,2.4,0.5s1.9-0.2,2.4-0.5c0.6-0.3,0.9-0.9,0.9-1.6s-0.3-1.2-0.9-1.5
		c-0.6-0.4-1.4-0.5-2.4-0.5s-1.8,0.2-2.4,0.5c-0.6,0.4-0.9,0.9-0.9,1.5C82.6,22,82.9,22.5,83.5,22.9z M107.6,29.3
		c2.4,1.2,3.6,2.9,3.6,5.1c0,2.3-1.2,4-3.6,5.2s-5.8,1.8-10.1,1.8c-4.4,0-7.8-0.6-10.1-1.8c-2.4-1.2-3.6-2.9-3.6-5.2
		c0-2.2,1.2-3.9,3.6-5.1s5.8-1.8,10.1-1.8C101.8,27.5,105.2,28.1,107.6,29.3z M105,34.4c0-0.7-0.3-1.3-0.9-1.6c-1.5-0.7-3.7-1-6.6-1
		s-5,0.3-6.6,1c-0.6,0.3-0.9,0.8-0.9,1.6c0,0.7,0.3,1.2,0.9,1.6c1.4,0.6,3.6,1,6.6,1c2.8,0,5-0.3,6.6-1C104.7,35.6,105,35,105,34.4z
		 M106.1,13.4V2.6h5.4v25.3h-5.4v-9.5h-4.3v7.7h-5.3V3.4h5.3v10H106.1z"/>
	<path class="st0" d="M129.9,6.5c-0.2,4-0.8,7.8-1.8,11.3l10.4,11.3l-3.8,4.3l-8.7-9.7c-1.9,4.2-4.5,7.9-7.6,11l-4.7-4.2
		c3.1-2.8,5.5-6.2,7.3-10.2s2.7-8.7,2.9-13.9L129.9,6.5z M146.9,18.2h5.6V24h-5.6v17h-5.8V2.6h5.8V18.2z"/>
	<g class="st1">
		<path class="st0" d="M194.8,11.6h5.6v5.1h-5.6v5.6H189v-3.6c-2.9,1-6.5,1.7-10.7,2.2c-4.3,0.5-9,0.7-14.3,0.7V5.2h19.1V10h-13.2
			l0,6.8c2.9,0,6.1-0.2,9.6-0.6c3.5-0.4,6.7-1,9.5-1.9V2.5h5.8V11.6z M194.8,34.2h-20.1v2.6h21.5V41h-27.5V30.5h20.1V28H168V24h26.8
			V34.2z"/>
		<path class="st0" d="M228.7,2.5h5.9v24.2h-5.9v-6h-5.4l0.4,3.8c-2.5,0.5-5.4,0.9-8.7,1.1c-3.3,0.2-7.4,0.3-12.5,0.3V13.4h11.9
			v-3.3h-12.3V5.6h17.4v12h-11.6v3.9c5.3,0,9.8-0.3,13.4-0.9v-4.3h7.3v-3.3h-7.3V8.4h7.3V2.5z M228.6,33.4h-21v-4.9h27v12.7h-6V33.4
			z"/>
	</g>
</g>
</svg>
